%FSLAX34Y34*%
%MOMM*%
%LNSILK_TOP*%
G71*
G01*
%ADD10C, 0.144*%
%ADD11C, 0.093*%
%ADD12C, 0.062*%
%ADD13C, 0.150*%
%ADD14C, 0.120*%
%ADD15C, 0.200*%
%ADD16C, 0.124*%
%ADD17C, 0.167*%
%ADD18C, 0.100*%
%ADD19C, 0.090*%
%ADD20C, 0.300*%
%LPD*%
G54D10*
X50822Y999164D02*
X50822Y999164D01*
G54D10*
X203222Y999164D02*
X203222Y999164D01*
G54D10*
X355622Y999164D02*
X355622Y999164D01*
G54D10*
X508022Y999164D02*
X508022Y999164D01*
G54D11*
X122252Y764095D02*
X122252Y766762D01*
X126419Y766762D01*
X128086Y766095D01*
X128919Y764762D01*
X128919Y763429D01*
X128086Y762095D01*
X126419Y761429D01*
X118086Y761429D01*
X116419Y762095D01*
X115586Y763429D01*
X115586Y764762D01*
X116419Y766095D01*
X118086Y766762D01*
G54D11*
X128919Y769429D02*
X121419Y769429D01*
G54D11*
X123086Y769429D02*
X121919Y770095D01*
X121419Y771429D01*
X121919Y772762D01*
X123086Y773429D01*
X128919Y773429D01*
G54D11*
X128919Y780096D02*
X115586Y780096D01*
G54D11*
X123586Y780096D02*
X121919Y779429D01*
X121419Y778096D01*
X121919Y776762D01*
X123586Y776096D01*
X126919Y776096D01*
X128586Y776762D01*
X128919Y778096D01*
X128586Y779429D01*
X126919Y780096D01*
G54D11*
X96852Y764095D02*
X98519Y766095D01*
X100186Y766762D01*
X103519Y766762D01*
G54D11*
X103519Y761429D02*
X90186Y761429D01*
X90186Y764762D01*
X91019Y766095D01*
X92686Y766762D01*
X94352Y766762D01*
X96019Y766095D01*
X96852Y764762D01*
X96852Y761429D01*
G54D11*
X102686Y769429D02*
X103519Y770762D01*
X103519Y772095D01*
X102686Y773429D01*
X101019Y773429D01*
X100186Y772762D01*
X99352Y770095D01*
X98519Y769429D01*
X96852Y769429D01*
X96019Y770762D01*
X96019Y772095D01*
X96852Y773429D01*
G54D11*
X90186Y777429D02*
X102686Y777429D01*
X103519Y778096D01*
X103186Y778762D01*
G54D11*
X96019Y776096D02*
X96019Y778762D01*
G54D11*
X71452Y764095D02*
X73119Y766095D01*
X74786Y766762D01*
X78119Y766762D01*
G54D11*
X78119Y761429D02*
X64786Y761429D01*
X64786Y764762D01*
X65619Y766095D01*
X67286Y766762D01*
X68952Y766762D01*
X70619Y766095D01*
X71452Y764762D01*
X71452Y761429D01*
G54D11*
X70619Y769429D02*
X78119Y774762D01*
G54D11*
X78119Y769429D02*
X70619Y774762D01*
G54D11*
X69786Y777429D02*
X64786Y780762D01*
X78119Y780762D01*
G54D11*
X52719Y764095D02*
X39386Y764095D01*
G54D11*
X39386Y761429D02*
X39386Y766762D01*
G54D11*
X45219Y769429D02*
X52719Y774762D01*
G54D11*
X52719Y769429D02*
X45219Y774762D01*
G54D11*
X41886Y782762D02*
X50219Y782762D01*
X51886Y782095D01*
X52719Y780762D01*
X52719Y779429D01*
X51886Y778095D01*
X50219Y777429D01*
X41886Y777429D01*
X40219Y778095D01*
X39386Y779429D01*
X39386Y780762D01*
X40219Y782095D01*
X41886Y782762D01*
G54D11*
X323786Y967804D02*
X318786Y971137D01*
X332119Y971137D01*
G54D11*
X321286Y979137D02*
X329619Y979137D01*
X331286Y978470D01*
X332119Y977137D01*
X332119Y975804D01*
X331286Y974470D01*
X329619Y973804D01*
X321286Y973804D01*
X319619Y974470D01*
X318786Y975804D01*
X318786Y977137D01*
X319619Y978470D01*
X321286Y979137D01*
G54D11*
X298386Y967804D02*
X293386Y971137D01*
X306719Y971137D01*
G54D11*
X298386Y973804D02*
X293386Y977137D01*
X306719Y977137D01*
G54D11*
X272986Y967804D02*
X267986Y971137D01*
X281319Y971137D01*
G54D11*
X281319Y979137D02*
X281319Y973804D01*
X280486Y973804D01*
X278819Y974470D01*
X273819Y978470D01*
X272152Y979137D01*
X270486Y979137D01*
X268819Y978470D01*
X267986Y977137D01*
X267986Y975804D01*
X268819Y974470D01*
X270486Y973804D01*
G54D11*
X247586Y967804D02*
X242586Y971137D01*
X255919Y971137D01*
G54D11*
X245086Y973804D02*
X243419Y974470D01*
X242586Y975804D01*
X242586Y977137D01*
X243419Y978470D01*
X245086Y979137D01*
X246752Y979137D01*
X248419Y978470D01*
X249252Y977137D01*
X250086Y978470D01*
X251752Y979137D01*
X253419Y979137D01*
X255086Y978470D01*
X255919Y977137D01*
X255919Y975804D01*
X255086Y974470D01*
X253419Y973804D01*
G54D11*
X230519Y967804D02*
X217186Y971137D01*
X230519Y974470D01*
G54D11*
X225519Y969137D02*
X225519Y973137D01*
G54D11*
X219686Y982471D02*
X228019Y982471D01*
X229686Y981804D01*
X230519Y980471D01*
X230519Y979138D01*
X229686Y977804D01*
X228019Y977138D01*
X219686Y977138D01*
X218019Y977804D01*
X217186Y979138D01*
X217186Y980471D01*
X218019Y981804D01*
X219686Y982471D01*
G54D11*
X205119Y967804D02*
X191786Y971137D01*
X205119Y974470D01*
G54D11*
X200119Y969137D02*
X200119Y973137D01*
G54D11*
X196786Y977138D02*
X191786Y980471D01*
X205119Y980471D01*
G54D11*
X179719Y967804D02*
X166386Y971137D01*
X179719Y974470D01*
G54D11*
X174719Y969137D02*
X174719Y973137D01*
G54D11*
X179719Y982471D02*
X179719Y977138D01*
X178886Y977138D01*
X177219Y977804D01*
X172219Y981804D01*
X170552Y982471D01*
X168886Y982471D01*
X167219Y981804D01*
X166386Y980471D01*
X166386Y979138D01*
X167219Y977804D01*
X168886Y977138D01*
G54D11*
X154319Y967804D02*
X140986Y971137D01*
X154319Y974470D01*
G54D11*
X149319Y969137D02*
X149319Y973137D01*
G54D11*
X143486Y977138D02*
X141819Y977804D01*
X140986Y979138D01*
X140986Y980471D01*
X141819Y981804D01*
X143486Y982471D01*
X145152Y982471D01*
X146819Y981804D01*
X147652Y980471D01*
X148486Y981804D01*
X150152Y982471D01*
X151819Y982471D01*
X153486Y981804D01*
X154319Y980471D01*
X154319Y979138D01*
X153486Y977804D01*
X151819Y977138D01*
G54D11*
X128919Y967804D02*
X115586Y967804D01*
X115586Y971137D01*
X116419Y972470D01*
X118086Y973137D01*
X119752Y973137D01*
X121419Y972470D01*
X122252Y971137D01*
X123086Y972470D01*
X124752Y973137D01*
X126419Y973137D01*
X128086Y972470D01*
X128919Y971137D01*
X128919Y967804D01*
G54D11*
X122252Y967804D02*
X122252Y971137D01*
G54D11*
X122252Y975804D02*
X121419Y977137D01*
X121419Y978737D01*
X123086Y979804D01*
X128919Y979804D01*
G54D11*
X126419Y979804D02*
X124752Y979137D01*
X124419Y977804D01*
X124752Y976470D01*
X126419Y975804D01*
X128086Y976070D01*
X128919Y977137D01*
X128919Y977804D01*
X128919Y978070D01*
X128086Y979137D01*
X126419Y979804D01*
G54D11*
X115586Y983804D02*
X128086Y983804D01*
X128919Y984471D01*
X128586Y985137D01*
G54D11*
X121419Y982471D02*
X121419Y985137D01*
G54D11*
X96852Y970470D02*
X98519Y972470D01*
X100186Y973137D01*
X103519Y973137D01*
G54D11*
X103519Y967804D02*
X90186Y967804D01*
X90186Y971137D01*
X91019Y972470D01*
X92686Y973137D01*
X94352Y973137D01*
X96019Y972470D01*
X96852Y971137D01*
X96852Y967804D01*
G54D11*
X102686Y975804D02*
X103519Y977137D01*
X103519Y978470D01*
X102686Y979804D01*
X101019Y979804D01*
X100186Y979137D01*
X99352Y976470D01*
X98519Y975804D01*
X96852Y975804D01*
X96019Y977137D01*
X96019Y978470D01*
X96852Y979804D01*
G54D11*
X90186Y983804D02*
X102686Y983804D01*
X103519Y984471D01*
X103186Y985137D01*
G54D11*
X96019Y982471D02*
X96019Y985137D01*
G54D11*
X71452Y970470D02*
X71452Y973137D01*
X75619Y973137D01*
X77286Y972470D01*
X78119Y971137D01*
X78119Y969804D01*
X77286Y968470D01*
X75619Y967804D01*
X67286Y967804D01*
X65619Y968470D01*
X64786Y969804D01*
X64786Y971137D01*
X65619Y972470D01*
X67286Y973137D01*
G54D11*
X78119Y975804D02*
X70619Y975804D01*
G54D11*
X72286Y975804D02*
X71119Y976470D01*
X70619Y977804D01*
X71119Y979137D01*
X72286Y979804D01*
X78119Y979804D01*
G54D11*
X78119Y986471D02*
X64786Y986471D01*
G54D11*
X72786Y986471D02*
X71119Y985804D01*
X70619Y984471D01*
X71119Y983137D01*
X72786Y982471D01*
X76119Y982471D01*
X77786Y983137D01*
X78119Y984471D01*
X77786Y985804D01*
X76119Y986471D01*
G54D11*
X46052Y970470D02*
X47719Y972470D01*
X49386Y973137D01*
X52719Y973137D01*
G54D11*
X52719Y967804D02*
X39386Y967804D01*
X39386Y971137D01*
X40219Y972470D01*
X41886Y973137D01*
X43552Y973137D01*
X45219Y972470D01*
X46052Y971137D01*
X46052Y967804D01*
G54D11*
X46052Y975804D02*
X45219Y977137D01*
X45219Y978737D01*
X46886Y979804D01*
X52719Y979804D01*
G54D11*
X50219Y979804D02*
X48552Y979137D01*
X48219Y977804D01*
X48552Y976470D01*
X50219Y975804D01*
X51886Y976070D01*
X52719Y977137D01*
X52719Y977804D01*
X52719Y978070D01*
X51886Y979137D01*
X50219Y979804D01*
G54D11*
X45219Y982471D02*
X52719Y984471D01*
X45219Y986471D01*
X52719Y988471D01*
X45219Y989804D01*
G54D12*
X163780Y747840D02*
X163780Y738951D01*
X160446Y738951D01*
X159113Y739506D01*
X158447Y740617D01*
X158447Y746173D01*
X159113Y747284D01*
X160446Y747840D01*
X163780Y747840D01*
G54D13*
X232812Y823706D02*
X232812Y842706D01*
X270812Y842706D01*
X270812Y823706D01*
X232812Y823706D01*
G54D13*
X232712Y833205D02*
X212112Y833206D01*
G54D13*
X291512Y833206D02*
X270912Y833206D01*
G54D13*
G75*
G01X115874Y747925D02*
G03X145263Y747925I14694J-20225D01*
G01*
G54D13*
X144868Y747900D02*
X116268Y747900D01*
G54D14*
X31432Y686119D02*
X76432Y686119D01*
G54D14*
X18932Y726119D02*
X18932Y711119D01*
G54D14*
X76432Y751119D02*
X31432Y751119D01*
G54D14*
X88932Y711119D02*
X88932Y726119D01*
G54D15*
X344566Y781370D02*
X344566Y961154D01*
X33813Y961154D01*
X33813Y781370D01*
X344566Y781370D01*
G54D16*
X323818Y902821D02*
X319373Y885044D01*
X314929Y902821D01*
G54D16*
X322040Y896155D02*
X316707Y896155D01*
G54D16*
X311373Y902821D02*
X311373Y892821D01*
G54D16*
X311373Y895044D02*
X309595Y892821D01*
X307817Y892821D01*
G54D16*
X298927Y902821D02*
X298927Y885044D01*
G54D16*
X298927Y895710D02*
X299816Y893488D01*
X301594Y892821D01*
X303372Y893488D01*
X304261Y895710D01*
X304261Y900155D01*
X303372Y902377D01*
X301594Y902821D01*
X299816Y902377D01*
X298927Y900155D01*
G54D16*
X290038Y892821D02*
X290038Y902821D01*
G54D16*
X290038Y900599D02*
X290927Y902377D01*
X292705Y902821D01*
X294483Y902377D01*
X295372Y900599D01*
X295372Y892821D01*
G54D16*
X286483Y902821D02*
X286483Y892821D01*
G54D16*
X286483Y889488D02*
X286483Y889488D01*
G54D16*
X282927Y902821D02*
X282927Y892821D01*
G54D16*
X282927Y895044D02*
X282038Y893488D01*
X280260Y892821D01*
X278482Y893488D01*
X277593Y895044D01*
X277593Y902821D01*
G54D16*
X268704Y900155D02*
X268704Y895710D01*
X269593Y893488D01*
X271371Y892821D01*
X273149Y893488D01*
X274038Y895710D01*
X274038Y900155D01*
X273149Y902377D01*
X271371Y902821D01*
X269593Y902377D01*
X268704Y900155D01*
G54D16*
X261415Y902821D02*
X261415Y885044D01*
X256970Y885044D01*
X255193Y886155D01*
X254304Y888377D01*
X254304Y890599D01*
X255193Y892821D01*
X256970Y893932D01*
X261415Y893932D01*
G54D16*
X250748Y902821D02*
X250748Y892821D01*
G54D16*
X250748Y895044D02*
X248970Y892821D01*
X247192Y892821D01*
G54D16*
X238302Y900155D02*
X238302Y895710D01*
X239191Y893488D01*
X240969Y892821D01*
X242747Y893488D01*
X243636Y895710D01*
X243636Y900155D01*
X242747Y902377D01*
X240969Y902821D01*
X239191Y902377D01*
X238302Y900155D01*
G54D16*
X231013Y902821D02*
X231013Y885044D01*
X226568Y896155D01*
X222124Y885044D01*
X222124Y902821D01*
G54D16*
X218568Y902821D02*
X218568Y892821D01*
G54D16*
X218568Y889488D02*
X218568Y889488D01*
G54D16*
X215012Y902821D02*
X215012Y892821D01*
G54D16*
X215012Y895044D02*
X214123Y893488D01*
X212345Y892821D01*
X210567Y893488D01*
X209678Y895044D01*
X209678Y902821D01*
G54D16*
X206123Y902821D02*
X206123Y892821D01*
G54D16*
X206123Y889488D02*
X206123Y889488D01*
G54D16*
X198833Y888377D02*
X197944Y886155D01*
X196166Y885044D01*
X194388Y885044D01*
X192611Y886155D01*
X191722Y888377D01*
X191722Y890599D01*
X192611Y892821D01*
X194388Y893932D01*
X192611Y895044D01*
X191722Y897266D01*
X191722Y899488D01*
X192611Y901710D01*
X194388Y902821D01*
X196166Y902821D01*
X197944Y901710D01*
X198833Y899488D01*
G54D16*
X181055Y902821D02*
X188166Y902821D01*
X188166Y901710D01*
X187277Y899488D01*
X181944Y892821D01*
X181055Y890599D01*
X181055Y888377D01*
X181944Y886155D01*
X183721Y885044D01*
X185499Y885044D01*
X187277Y886155D01*
X188166Y888377D01*
G54D16*
X173054Y893932D02*
X174832Y893933D01*
X176610Y892821D01*
X177499Y890599D01*
X177499Y888377D01*
X176610Y886155D01*
X174832Y885044D01*
X173054Y885044D01*
X171277Y886155D01*
X170388Y888377D01*
X170388Y890599D01*
X171276Y892821D01*
X173054Y893932D01*
X171276Y895044D01*
X170388Y897266D01*
X170388Y899488D01*
X171276Y901710D01*
X173054Y902821D01*
X174832Y902821D01*
X176610Y901710D01*
X177499Y899488D01*
X177499Y897266D01*
X176610Y895044D01*
X174832Y893933D01*
G54D16*
X166832Y902821D02*
X166832Y885044D01*
X162387Y885044D01*
X160610Y886155D01*
X159721Y888377D01*
X159721Y890599D01*
X160610Y892821D01*
X162387Y893932D01*
X166832Y893932D01*
G54D16*
X149764Y885044D02*
X151542Y886155D01*
X152431Y888377D01*
X152431Y899488D01*
X151542Y901710D01*
X149764Y902821D01*
G54D16*
X146208Y888377D02*
X145319Y886155D01*
X143541Y885044D01*
X141763Y885044D01*
X139986Y886155D01*
X139097Y888377D01*
X139097Y890599D01*
X139986Y892821D01*
X141763Y893932D01*
X139986Y895044D01*
X139097Y897266D01*
X139097Y899488D01*
X139986Y901710D01*
X141763Y902821D01*
X143541Y902821D01*
X145319Y901710D01*
X146208Y899488D01*
G54D16*
X135541Y902821D02*
X135541Y902821D01*
G54D16*
X131985Y888377D02*
X131096Y886155D01*
X129318Y885044D01*
X127540Y885044D01*
X125762Y886155D01*
X124874Y888377D01*
X124874Y890599D01*
X125763Y892821D01*
X127540Y893932D01*
X125762Y895044D01*
X124874Y897266D01*
X124874Y899488D01*
X125763Y901710D01*
X127540Y902821D01*
X129318Y902821D01*
X131096Y901710D01*
X131985Y899488D01*
G54D16*
X121318Y885044D02*
X116873Y902821D01*
X112429Y885044D01*
G54D16*
X105139Y902821D02*
X98028Y885044D01*
G54D16*
X86293Y893932D02*
X88071Y893932D01*
X89849Y892821D01*
X90738Y890599D01*
X90738Y888377D01*
X89849Y886155D01*
X88071Y885044D01*
X86293Y885044D01*
X84516Y886155D01*
X83627Y888377D01*
X83627Y890599D01*
X84516Y892821D01*
X86293Y893932D01*
X84516Y895044D01*
X83627Y897266D01*
X83627Y899488D01*
X84516Y901710D01*
X86293Y902821D01*
X88071Y902821D01*
X89849Y901710D01*
X90738Y899488D01*
X90738Y897266D01*
X89849Y895044D01*
X88071Y893932D01*
G54D16*
X80071Y902821D02*
X80071Y885044D01*
X75626Y896155D01*
X71182Y885044D01*
X71182Y902821D01*
G54D16*
X67626Y902821D02*
X67626Y885044D01*
G54D16*
X60515Y902821D02*
X60515Y885044D01*
G54D16*
X67626Y893933D02*
X60515Y893932D01*
G54D16*
X56959Y892821D02*
X51626Y892821D01*
X56959Y902821D01*
X51626Y902821D01*
G54D16*
X48070Y885044D02*
X46292Y886155D01*
X45403Y888377D01*
X45403Y899488D01*
X46292Y901710D01*
X48070Y902821D01*
G54D15*
X334169Y673894D02*
X334169Y765969D01*
X543719Y765969D01*
X543719Y673894D01*
X334169Y673894D01*
G54D11*
X401798Y637382D02*
X415132Y637382D01*
X415132Y642048D01*
G54D11*
X415132Y649382D02*
X415132Y644716D01*
X401798Y644716D01*
X401798Y649382D01*
G54D11*
X408465Y644716D02*
X408465Y649382D01*
G54D11*
X415132Y652050D02*
X401798Y652050D01*
X401798Y655383D01*
X402632Y656716D01*
X404298Y657383D01*
X412632Y657383D01*
X414298Y656716D01*
X415132Y655383D01*
X415132Y652050D01*
G54D11*
X409298Y662850D02*
X409298Y668183D01*
G54D11*
X357665Y640048D02*
X357665Y642715D01*
X361832Y642715D01*
X363498Y642048D01*
X364332Y640715D01*
X364332Y639382D01*
X363498Y638048D01*
X361832Y637382D01*
X353498Y637382D01*
X351832Y638048D01*
X350998Y639382D01*
X350998Y640715D01*
X351832Y642048D01*
X353498Y642715D01*
G54D11*
X364332Y645382D02*
X350998Y645382D01*
X364332Y650715D01*
X350998Y650715D01*
G54D11*
X364332Y653382D02*
X350998Y653382D01*
X350998Y656715D01*
X351832Y658048D01*
X353498Y658715D01*
X361832Y658715D01*
X363498Y658048D01*
X364332Y656715D01*
X364332Y653382D01*
G54D11*
X451011Y637382D02*
X464344Y637382D01*
X464344Y642048D01*
G54D11*
X464344Y649382D02*
X464344Y644716D01*
X451011Y644716D01*
X451011Y649382D01*
G54D11*
X457678Y644716D02*
X457678Y649382D01*
G54D11*
X464344Y652050D02*
X451011Y652050D01*
X451011Y655383D01*
X451844Y656716D01*
X453511Y657383D01*
X461844Y657383D01*
X463511Y656716D01*
X464344Y655383D01*
X464344Y652050D01*
G54D11*
X458511Y662850D02*
X458511Y668183D01*
G54D11*
X455178Y665516D02*
X461844Y665516D01*
G54D11*
X501811Y637382D02*
X515144Y640715D01*
X501811Y644049D01*
G54D11*
X512644Y652049D02*
X514311Y651383D01*
X515144Y650049D01*
X515144Y648716D01*
X514311Y647383D01*
X512644Y646716D01*
X504311Y646716D01*
X502644Y647383D01*
X501811Y648716D01*
X501811Y650049D01*
X502644Y651383D01*
X504311Y652049D01*
G54D11*
X512644Y660049D02*
X514311Y659383D01*
X515144Y658049D01*
X515144Y656716D01*
X514311Y655383D01*
X512644Y654716D01*
X504311Y654716D01*
X502644Y655383D01*
X501811Y656716D01*
X501811Y658049D01*
X502644Y659383D01*
X504311Y660049D01*
G54D11*
X509311Y665516D02*
X509311Y670849D01*
G54D11*
X505978Y668183D02*
X512644Y668183D01*
G54D17*
X357982Y611982D02*
X357982Y625315D01*
X362982Y625315D01*
X364982Y624482D01*
X365982Y622815D01*
X365982Y614482D01*
X364982Y612815D01*
X362982Y611982D01*
X357982Y611982D01*
G54D17*
X377649Y614482D02*
X376649Y612815D01*
X374649Y611982D01*
X372649Y611982D01*
X370649Y612815D01*
X369649Y614482D01*
X369649Y622815D01*
X370649Y624482D01*
X372649Y625315D01*
X374649Y625315D01*
X376649Y624482D01*
X377649Y622815D01*
G54D17*
X385183Y611982D02*
X385183Y625315D01*
G54D17*
X388850Y611982D02*
X388850Y619482D01*
G54D17*
X388850Y617815D02*
X389850Y618982D01*
X391850Y619482D01*
X393850Y618982D01*
X394850Y617815D01*
X394850Y611982D01*
G54D17*
X398517Y619482D02*
X398517Y608648D01*
G54D17*
X398517Y614482D02*
X399517Y612315D01*
X401517Y611982D01*
X403517Y612315D01*
X404517Y613982D01*
X404517Y617315D01*
X403517Y618982D01*
X401517Y619482D01*
X399517Y618982D01*
X398517Y616982D01*
G54D17*
X414184Y619482D02*
X414184Y611982D01*
G54D17*
X414184Y613648D02*
X413184Y612315D01*
X411184Y611982D01*
X409184Y612315D01*
X408184Y613648D01*
X408184Y619482D01*
G54D17*
X419851Y625315D02*
X419851Y612815D01*
X420851Y611982D01*
X421851Y612315D01*
G54D17*
X417851Y619482D02*
X421851Y619482D01*
G54D17*
X429385Y611982D02*
X429385Y619482D01*
G54D17*
X429385Y618148D02*
X431385Y619482D01*
X433385Y618982D01*
X434385Y617815D01*
X434385Y611982D01*
G54D17*
X434385Y618148D02*
X436385Y619482D01*
X438385Y618982D01*
X439385Y617815D01*
X439385Y611982D01*
G54D17*
X443052Y618648D02*
X445052Y619482D01*
X447452Y619482D01*
X449052Y617815D01*
X449052Y611982D01*
G54D17*
X449052Y614482D02*
X448052Y616148D01*
X446052Y616482D01*
X444052Y616148D01*
X443052Y614482D01*
X443452Y612815D01*
X445052Y611982D01*
X446052Y611982D01*
X446452Y611982D01*
X448052Y612815D01*
X449052Y614482D01*
G54D17*
X452719Y619482D02*
X460719Y611982D01*
G54D17*
X452719Y611982D02*
X460719Y619482D01*
G54D17*
X468253Y620315D02*
X473253Y625315D01*
X473253Y611982D01*
G54D17*
X484920Y611982D02*
X476920Y611982D01*
X476920Y612815D01*
X477920Y614482D01*
X483920Y619482D01*
X484920Y621148D01*
X484920Y622815D01*
X483920Y624482D01*
X481920Y625315D01*
X479920Y625315D01*
X477920Y624482D01*
X476920Y622815D01*
G54D17*
X488587Y625315D02*
X493587Y611982D01*
X498587Y625315D01*
G54D17*
X514121Y625315D02*
X506121Y625315D01*
X506121Y619482D01*
X507121Y619482D01*
X509121Y620315D01*
X511121Y620315D01*
X513121Y619482D01*
X514121Y617815D01*
X514121Y614482D01*
X513121Y612815D01*
X511121Y611982D01*
X509121Y611982D01*
X507121Y612815D01*
X506121Y614482D01*
G54D17*
X517788Y611982D02*
X522788Y625315D01*
X527788Y611982D01*
G54D17*
X519788Y616982D02*
X525788Y616982D01*
G36*
X205531Y762025D02*
X294331Y762025D01*
X294331Y768425D01*
X205531Y768425D01*
X205531Y762025D01*
G37*
G54D18*
X205531Y762025D02*
X294331Y762025D01*
X294331Y768425D01*
X205531Y768425D01*
X205531Y762025D01*
G54D13*
X205531Y768425D02*
X205531Y730425D01*
X294531Y730425D01*
X294531Y768425D01*
X205531Y768425D01*
G54D19*
X225131Y722725D02*
X227331Y722725D01*
X227331Y720425D01*
X226731Y719525D01*
X225731Y719125D01*
X224631Y719125D01*
X223531Y719525D01*
X223031Y720425D01*
X223031Y724925D01*
X223531Y725825D01*
X224631Y726225D01*
X225731Y726225D01*
X226731Y725825D01*
X227331Y724925D01*
G54D19*
X248431Y719125D02*
X248431Y726225D01*
X251131Y726225D01*
X252131Y725825D01*
X252731Y724925D01*
X252731Y720425D01*
X252131Y719525D01*
X251131Y719125D01*
X248431Y719125D01*
G54D19*
X273831Y720425D02*
X274331Y719525D01*
X275431Y719125D01*
X276531Y719125D01*
X277531Y719525D01*
X278131Y720425D01*
X278131Y721325D01*
X277531Y722225D01*
X276531Y722725D01*
X275431Y722725D01*
X274331Y723125D01*
X273831Y724025D01*
X273831Y724925D01*
X274331Y725825D01*
X275431Y726225D01*
X276531Y726225D01*
X277531Y725825D01*
X278131Y724925D01*
G54D10*
X204781Y795175D02*
X204781Y795175D01*
G54D17*
X163252Y714931D02*
X163252Y728265D01*
G54D17*
X169586Y721598D02*
X171586Y719931D01*
X172253Y718265D01*
X172253Y714931D01*
G54D17*
X166920Y714931D02*
X166920Y728265D01*
X170253Y728265D01*
X171586Y727431D01*
X172253Y725765D01*
X172253Y724098D01*
X171586Y722431D01*
X170253Y721598D01*
X166920Y721598D01*
G54D17*
X175920Y728265D02*
X175920Y714931D01*
X180586Y714931D01*
G54D17*
X184254Y728265D02*
X189587Y728265D01*
X184254Y714931D01*
X189587Y714931D01*
G54D17*
X201054Y714931D02*
X201054Y728265D01*
X197054Y719931D01*
X197054Y718265D01*
X202387Y718265D01*
G54D17*
X210054Y714931D02*
X210054Y728265D01*
X206054Y719931D01*
X206054Y718265D01*
X211387Y718265D01*
G54D17*
X215054Y714931D02*
X215054Y728265D01*
X220387Y714931D01*
X220387Y728265D01*
G54D13*
X104032Y817588D02*
X104032Y836588D01*
X142032Y836588D01*
X142032Y817588D01*
X104032Y817588D01*
G54D13*
X103932Y827088D02*
X83332Y827088D01*
G54D13*
X162732Y827088D02*
X142132Y827088D01*
G54D11*
X115222Y820317D02*
X115222Y833650D01*
X111222Y825317D01*
X111222Y823650D01*
X116555Y823650D01*
G54D11*
X119222Y820317D02*
X119222Y833650D01*
G54D11*
X119222Y824484D02*
X124555Y833650D01*
G54D11*
X121222Y826984D02*
X124555Y820317D01*
G54D11*
X127222Y833650D02*
X132555Y833650D01*
X131888Y831984D01*
X130555Y829484D01*
X129222Y826150D01*
X128555Y823650D01*
X128555Y820317D01*
G54D13*
X104825Y850132D02*
X104825Y869132D01*
X142825Y869132D01*
X142825Y850132D01*
X104825Y850132D01*
G54D13*
X104725Y859632D02*
X84125Y859632D01*
G54D13*
X163525Y859632D02*
X142925Y859632D01*
G54D11*
X112016Y861194D02*
X115349Y866194D01*
X115349Y852861D01*
G54D11*
X123349Y863694D02*
X123349Y855361D01*
X122682Y853694D01*
X121349Y852861D01*
X120016Y852861D01*
X118682Y853694D01*
X118016Y855361D01*
X118016Y863694D01*
X118682Y865361D01*
X120016Y866194D01*
X121349Y866194D01*
X122682Y865361D01*
X123349Y863694D01*
G54D11*
X131349Y863694D02*
X131349Y855361D01*
X130682Y853694D01*
X129349Y852861D01*
X128016Y852861D01*
X126682Y853694D01*
X126016Y855361D01*
X126016Y863694D01*
X126682Y865361D01*
X128016Y866194D01*
X129349Y866194D01*
X130682Y865361D01*
X131349Y863694D01*
G54D13*
X541492Y971033D02*
X546492Y971033D01*
X546492Y771033D01*
X376492Y771033D01*
X376492Y971033D01*
X381492Y971033D01*
G54D20*
X481999Y846655D02*
X482713Y845940D01*
X483427Y843798D01*
X483427Y842369D01*
X482713Y840226D01*
X481284Y838798D01*
X479856Y838083D01*
X476999Y837369D01*
X474856Y837369D01*
X471999Y838083D01*
X470570Y838798D01*
X469142Y840226D01*
X468427Y842369D01*
X468427Y843798D01*
X469142Y845940D01*
X469856Y846655D01*
G54D20*
X481999Y861655D02*
X482713Y860940D01*
X483427Y858798D01*
X483427Y857369D01*
X482713Y855226D01*
X481284Y853798D01*
X479856Y853083D01*
X476999Y852369D01*
X474856Y852369D01*
X471999Y853083D01*
X470570Y853798D01*
X469142Y855226D01*
X468427Y857369D01*
X468427Y858798D01*
X469142Y860940D01*
X469856Y861655D01*
G54D20*
X483427Y875940D02*
X483427Y867369D01*
G54D20*
X483427Y871655D02*
X468428Y871655D01*
X470570Y870226D01*
X471999Y868798D01*
X472713Y867369D01*
G54D20*
X483427Y890226D02*
X483427Y881655D01*
G54D20*
X483428Y885941D02*
X468427Y885941D01*
X470570Y884512D01*
X471999Y883083D01*
X472713Y881655D01*
G54D20*
X469142Y898083D02*
X468428Y899512D01*
X468427Y900941D01*
X469142Y902369D01*
X469856Y903083D01*
X471285Y903798D01*
X474142Y904512D01*
X477713Y904512D01*
X480570Y903797D01*
X481999Y903083D01*
X482713Y902369D01*
X483427Y900941D01*
X483427Y899512D01*
X482713Y898083D01*
X481999Y897369D01*
X480570Y896655D01*
X477713Y895941D01*
X474142Y895941D01*
X471284Y896655D01*
X469856Y897369D01*
X469142Y898083D01*
G54D20*
X483427Y918798D02*
X483427Y910226D01*
G54D20*
X483427Y914512D02*
X468427Y914512D01*
X470570Y913083D01*
X471999Y911655D01*
X472713Y910226D01*
G54D13*
X541492Y971033D02*
X546492Y971033D01*
X546492Y771033D01*
X376492Y771033D01*
X376492Y971033D01*
X381492Y971033D01*
G54D13*
G75*
G01X431492Y781033D02*
G03X431492Y781033I-5000J0D01*
G01*
G54D13*
G75*
G01X481492Y781033D02*
G03X481492Y781033I-5000J0D01*
G01*
G54D13*
G75*
G01X456492Y781033D02*
G03X456492Y781033I-5000J0D01*
G01*
G54D10*
X349741Y980034D02*
X349741Y980034D01*
G54D11*
X240506Y837921D02*
X241173Y839588D01*
X242506Y840421D01*
X243840Y840421D01*
X245173Y839588D01*
X245840Y837921D01*
X245840Y836254D01*
X245173Y834588D01*
X243840Y833754D01*
X245173Y832921D01*
X245840Y831254D01*
X245840Y829588D01*
X245173Y827921D01*
X243840Y827088D01*
X242506Y827088D01*
X241173Y827921D01*
X240506Y829588D01*
G54D11*
X248506Y837921D02*
X249173Y839588D01*
X250506Y840421D01*
X251840Y840421D01*
X253173Y839588D01*
X253840Y837921D01*
X253840Y836254D01*
X253173Y834588D01*
X251840Y833754D01*
X253173Y832921D01*
X253840Y831254D01*
X253840Y829588D01*
X253173Y827921D01*
X251840Y827088D01*
X250506Y827088D01*
X249173Y827921D01*
X248506Y829588D01*
G54D11*
X261840Y837921D02*
X261840Y829588D01*
X261173Y827921D01*
X259840Y827088D01*
X258506Y827088D01*
X257173Y827921D01*
X256506Y829588D01*
X256506Y837921D01*
X257173Y839588D01*
X258506Y840421D01*
X259840Y840421D01*
X261173Y839588D01*
X261840Y837921D01*
G54D13*
X118315Y644054D02*
X118315Y640854D01*
X99315Y640854D01*
X99315Y644054D01*
X118315Y644054D01*
G54D13*
G75*
G01X137414Y644054D02*
G03X137414Y644054I-28599J0D01*
G01*
G54D13*
X92915Y631354D02*
X86615Y631354D01*
G54D13*
X89715Y634554D02*
X89715Y628154D01*
G54D13*
X118315Y647254D02*
X99315Y647254D01*
G54D10*
X164004Y673404D02*
X164004Y673404D01*
G54D13*
X80425Y665434D02*
X55025Y665434D01*
X55025Y619234D01*
X80425Y619234D01*
X80425Y665434D01*
G54D13*
X75725Y643934D02*
X59725Y643934D01*
G54D13*
X75725Y640734D02*
X59725Y640734D01*
G54D13*
X67725Y643934D02*
X67725Y645534D01*
G54D13*
X67725Y640734D02*
X67725Y639134D01*
G54D10*
X107175Y666183D02*
X107175Y666183D01*
G54D12*
X9525Y677226D02*
X9525Y668338D01*
X12636Y668338D01*
G54D12*
X14414Y677226D02*
X17970Y677226D01*
X17525Y676115D01*
X16636Y674449D01*
X15747Y672226D01*
X15303Y670560D01*
X15303Y668338D01*
G54D12*
X21970Y672782D02*
X21081Y672782D01*
X20192Y673338D01*
X19748Y674449D01*
X19748Y675560D01*
X20192Y676671D01*
X21081Y677226D01*
X21970Y677226D01*
X22859Y676671D01*
X23304Y675560D01*
X23304Y674449D01*
X22859Y673338D01*
X21970Y672782D01*
X22859Y672226D01*
X23304Y671115D01*
X23304Y670004D01*
X22859Y668893D01*
X21970Y668338D01*
X21081Y668338D01*
X20192Y668893D01*
X19748Y670004D01*
X19748Y671115D01*
X20192Y672226D01*
X21081Y672782D01*
G54D12*
X25082Y677226D02*
X25082Y668338D01*
X28193Y668338D01*
G54D12*
X33527Y675560D02*
X33527Y670004D01*
X33082Y668893D01*
X32193Y668338D01*
X31304Y668338D01*
X30415Y668893D01*
X29971Y670004D01*
X29971Y675560D01*
X30415Y676671D01*
X31304Y677226D01*
X32193Y677226D01*
X33082Y676671D01*
X33527Y675560D01*
G54D12*
X38861Y677226D02*
X35305Y677226D01*
X35305Y673338D01*
X35749Y673338D01*
X36638Y673893D01*
X37527Y673893D01*
X38416Y673338D01*
X38861Y672226D01*
X38861Y670004D01*
X38416Y668893D01*
X37527Y668338D01*
X36638Y668338D01*
X35749Y668893D01*
X35305Y670004D01*
G54D12*
X40639Y668338D02*
X42861Y677226D01*
X45083Y668338D01*
G54D12*
X41528Y671671D02*
X44195Y671671D01*
G54D12*
X50417Y670004D02*
X49972Y668893D01*
X49083Y668338D01*
X48194Y668338D01*
X47305Y668893D01*
X46861Y670004D01*
X46861Y675560D01*
X47305Y676671D01*
X48194Y677226D01*
X49083Y677226D01*
X49972Y676671D01*
X50417Y675560D01*
G54D12*
X52195Y677226D02*
X55751Y677226D01*
X52195Y668338D01*
X55751Y668338D01*
G54D13*
X23699Y667287D02*
X8499Y662387D01*
X8499Y618787D01*
X23699Y613887D01*
G54D13*
G75*
G01X23799Y613937D02*
G03X23799Y667237I0J26650D01*
G01*
G54D10*
X57699Y655001D02*
X57699Y655001D01*
G54D11*
X170294Y606992D02*
X171961Y607659D01*
X172794Y608992D01*
X172794Y610326D01*
X171961Y611659D01*
X170294Y612326D01*
X168627Y612326D01*
X166961Y611659D01*
X166127Y610326D01*
X166127Y608992D01*
X165294Y607659D01*
X163627Y606992D01*
X161961Y606992D01*
X160294Y607659D01*
X159461Y608992D01*
X159461Y610326D01*
X160294Y611659D01*
X161961Y612326D01*
G54D11*
X159461Y614992D02*
X172794Y614992D01*
X164461Y618326D01*
X172794Y621659D01*
X159461Y621659D01*
G54D11*
X164461Y624326D02*
X159461Y627660D01*
X172794Y627660D01*
G54D11*
X221094Y606992D02*
X222761Y607659D01*
X223594Y608992D01*
X223594Y610326D01*
X222761Y611659D01*
X221094Y612326D01*
X219427Y612326D01*
X217761Y611659D01*
X216927Y610326D01*
X216927Y608992D01*
X216094Y607659D01*
X214427Y606992D01*
X212761Y606992D01*
X211094Y607659D01*
X210261Y608992D01*
X210261Y610326D01*
X211094Y611659D01*
X212761Y612326D01*
G54D11*
X210261Y614992D02*
X223594Y614992D01*
X215261Y618326D01*
X223594Y621659D01*
X210261Y621659D01*
G54D11*
X223594Y629660D02*
X223594Y624326D01*
X222761Y624326D01*
X221094Y624993D01*
X216094Y628993D01*
X214427Y629660D01*
X212761Y629660D01*
X211094Y628993D01*
X210261Y627660D01*
X210261Y626326D01*
X211094Y624993D01*
X212761Y624326D01*
G54D11*
X267727Y609659D02*
X267727Y612326D01*
X271894Y612326D01*
X273561Y611659D01*
X274394Y610326D01*
X274394Y608992D01*
X273561Y607659D01*
X271894Y606992D01*
X263561Y606992D01*
X261894Y607659D01*
X261061Y608992D01*
X261061Y610326D01*
X261894Y611659D01*
X263561Y612326D01*
G54D11*
X274394Y614992D02*
X261061Y614992D01*
X274394Y620326D01*
X261061Y620326D01*
G54D11*
X274394Y622992D02*
X261061Y622992D01*
X261061Y626326D01*
X261894Y627659D01*
X263561Y628326D01*
X271894Y628326D01*
X273561Y627659D01*
X274394Y626326D01*
X274394Y622992D01*
G54D15*
X143669Y704850D02*
X289719Y704850D01*
X289719Y629444D01*
X143669Y629444D01*
X143669Y704850D01*
M02*
