%FSLAX34Y34*%
%MOMM*%
%LNSILK_BOTTOM*%
G71*
G01*
%ADD10C, 0.167*%
%LPD*%
G54D10*
X286544Y905669D02*
X286544Y919003D01*
G54D10*
X278544Y905669D02*
X278544Y919003D01*
G54D10*
X286544Y912336D02*
X278544Y912336D01*
G54D10*
X274877Y905669D02*
X274877Y919003D01*
X269877Y910669D01*
X264877Y919003D01*
X264877Y905669D01*
G54D10*
X261210Y911503D02*
X253210Y911503D01*
G54D10*
X249543Y919003D02*
X249543Y905669D01*
X242543Y905669D01*
G54D10*
X230876Y908169D02*
X231876Y906503D01*
X233876Y905669D01*
X235876Y905669D01*
X237876Y906503D01*
X238876Y908169D01*
X238876Y916503D01*
X237876Y918169D01*
X235876Y919003D01*
X233876Y919003D01*
X231876Y918169D01*
X230876Y916503D01*
G54D10*
X227209Y911503D02*
X219209Y911503D01*
G54D10*
X215542Y905669D02*
X215542Y919003D01*
X210542Y919003D01*
X208542Y918169D01*
X207542Y916503D01*
X207542Y908169D01*
X208542Y906503D01*
X210542Y905669D01*
X215542Y905669D01*
G54D10*
X203875Y905669D02*
X203875Y913169D01*
G54D10*
X203875Y915669D02*
X203875Y915669D01*
G54D10*
X200208Y905669D02*
X200208Y913169D01*
G54D10*
X200208Y911836D02*
X198208Y913169D01*
X196208Y912669D01*
X195208Y911503D01*
X195208Y905669D01*
G54D10*
X195208Y911836D02*
X193208Y913169D01*
X191208Y912669D01*
X190208Y911503D01*
X190208Y905669D01*
G54D10*
X186541Y914003D02*
X181541Y919003D01*
X181541Y905669D01*
G54D10*
X267669Y898365D02*
X269669Y897532D01*
X270669Y895865D01*
X270669Y887532D01*
X269669Y885865D01*
X267669Y885032D01*
G54D10*
X259002Y892032D02*
X261002Y892532D01*
X263002Y892032D01*
X264002Y890365D01*
X264002Y887032D01*
X263002Y885365D01*
X261002Y885032D01*
X259002Y885365D01*
G54D10*
X255335Y898365D02*
X253335Y897532D01*
X252335Y895865D01*
X252335Y887532D01*
X253335Y885865D01*
X255335Y885032D01*
G54D10*
X240801Y891699D02*
X237801Y890032D01*
X236801Y888365D01*
X236801Y885032D01*
G54D10*
X244801Y885032D02*
X244801Y898365D01*
X239801Y898365D01*
X237801Y897532D01*
X236801Y895865D01*
X236801Y894199D01*
X237801Y892532D01*
X239801Y891699D01*
X244801Y891699D01*
G54D10*
X233134Y885032D02*
X233134Y885032D01*
G54D10*
X221600Y885032D02*
X221600Y898365D01*
G54D10*
X225600Y898365D02*
X217600Y898365D01*
G54D10*
X213933Y885032D02*
X213933Y898365D01*
G54D10*
X213933Y890365D02*
X212933Y892032D01*
X210933Y892532D01*
X208933Y892032D01*
X207933Y890365D01*
X207933Y885032D01*
G54D10*
X198266Y887032D02*
X198266Y890365D01*
X199266Y892032D01*
X201266Y892532D01*
X203266Y892032D01*
X204266Y890365D01*
X204266Y887032D01*
X203266Y885365D01*
X201266Y885032D01*
X199266Y885365D01*
X198266Y887032D01*
G54D10*
X194599Y885032D02*
X194599Y892532D01*
G54D10*
X194599Y891199D02*
X192599Y892532D01*
X190599Y892032D01*
X189599Y890865D01*
X189599Y885032D01*
G54D10*
X189599Y891199D02*
X187599Y892532D01*
X185599Y892032D01*
X184599Y890865D01*
X184599Y885032D01*
G54D10*
X180932Y891699D02*
X178932Y892532D01*
X176532Y892532D01*
X174932Y890865D01*
X174932Y885032D01*
G54D10*
X174932Y887532D02*
X175932Y889199D01*
X177932Y889532D01*
X179932Y889199D01*
X180932Y887532D01*
X180532Y885865D01*
X178932Y885032D01*
X177932Y885032D01*
X177532Y885032D01*
X175932Y885865D01*
X174932Y887532D01*
G54D10*
X171265Y885865D02*
X169265Y885032D01*
X167265Y885032D01*
X165265Y885865D01*
X165265Y887532D01*
X166265Y888365D01*
X170265Y889199D01*
X171265Y890032D01*
X171265Y891699D01*
X169265Y892532D01*
X167265Y892532D01*
X165265Y891699D01*
G54D10*
X157731Y898365D02*
X152731Y885032D01*
X147731Y898365D01*
G54D10*
X144064Y893365D02*
X139064Y898365D01*
X139064Y885032D01*
G54D10*
X135397Y885032D02*
X135397Y885032D01*
G54D10*
X123730Y898365D02*
X131730Y898365D01*
X131730Y892532D01*
X130730Y892532D01*
X128730Y893365D01*
X126730Y893365D01*
X124730Y892532D01*
X123730Y890865D01*
X123730Y887532D01*
X124730Y885865D01*
X126730Y885032D01*
X128730Y885032D01*
X130730Y885865D01*
X131730Y887532D01*
M02*
