; Drill file
; Format: 2.4 (00.0000)
M48
INCH
T01C0.0118
T02C0.0236
T03C0.0256
T04C0.0311
T05C0.0315
T06C0.0394
T07C0.043
T08C0.0433
T09C0.0472
%
G05
G90
T01
X006560Y025160
T02
X002670Y024790
X002670Y025790
X004280Y025860
X004280Y024860
T03
X000930Y024670
X001430Y025220
X000930Y025770
T04
X016790Y030750
X018760Y030750
X018560Y037820
X017780Y037820
X016990Y037820
X016200Y037820
X015410Y037820
X019350Y037820
X020140Y037820
X020920Y037820
T05
X005140Y028060
X005140Y029060
X006840Y032560
X007910Y032800
X006880Y033840
X002870Y033840
X002840Y032560
X011910Y032800
T06
X001910Y031320
X002910Y031320
X003910Y031320
X004910Y031320
X005910Y031320
X006910Y031320
X007910Y031320
X008910Y031320
X009910Y031320
X010910Y031320
X011910Y031320
X012910Y031320
X012910Y037320
X011910Y037320
X010910Y037320
X009910Y037320
X008910Y037320
X007910Y037320
X006910Y037320
X005910Y037320
X004910Y037320
X003910Y037320
X002910Y037320
X001910Y037320
T07
X000840Y027410
X000840Y029180
X003400Y029180
X003400Y027410
T08
X006560Y026440
X008560Y026440
X010560Y026440
X010840Y029380
X009840Y029380
X008840Y029380
T09
X014280Y028410
X016280Y028410
X018280Y028410
X020280Y028410
M30
