%FSLAX34Y34*%
%MOMM*%
%LNCOPPER_BOTTOM*%
G71*
G01*
%ADD10C, 2.000*%
%ADD11C, 0.200*%
%ADD12C, 2.000*%
%ADD13C, 0.500*%
%ADD14C, 1.600*%
%ADD15C, 1.350*%
%ADD16C, 2.000*%
%ADD17C, 1.600*%
%ADD18C, 2.000*%
%ADD19C, 3.000*%
%ADD20C, 4.000*%
%ADD21C, 1.800*%
%ADD22C, 0.300*%
%ADD23C, 1.350*%
%ADD24R, 1.350X1.800*%
%ADD25C, 0.250*%
%ADD26C, 1.350*%
%ADD27C, 1.800*%
%ADD28C, 1.280*%
%ADD29C, 3.000*%
%ADD30C, 2.000*%
%ADD31C, 0.500*%
%LPD*%
X48591Y795465D02*
G54D10*
D03*
X73992Y795465D02*
G54D10*
D03*
X99392Y795465D02*
G54D10*
D03*
X124791Y795465D02*
G54D10*
D03*
X150192Y795465D02*
G54D10*
D03*
X175592Y795465D02*
G54D10*
D03*
X200992Y795465D02*
G54D10*
D03*
X226392Y795465D02*
G54D10*
D03*
X251791Y795465D02*
G54D10*
D03*
X277191Y795465D02*
G54D10*
D03*
X302591Y795465D02*
G54D10*
D03*
X327991Y795465D02*
G54D10*
D03*
X48592Y947865D02*
G54D10*
D03*
X73992Y947865D02*
G54D10*
D03*
X99392Y947865D02*
G54D10*
D03*
X124792Y947865D02*
G54D10*
D03*
X150191Y947865D02*
G54D10*
D03*
X175592Y947865D02*
G54D10*
D03*
X200992Y947865D02*
G54D10*
D03*
X226392Y947865D02*
G54D10*
D03*
X251791Y947865D02*
G54D10*
D03*
X277191Y947865D02*
G54D10*
D03*
X302591Y947865D02*
G54D10*
D03*
X327991Y947865D02*
G54D10*
D03*
X327991Y947865D02*
G54D10*
D03*
G54D11*
X302591Y795465D02*
X302591Y811340D01*
X35892Y811340D01*
X35892Y798640D01*
X23192Y785940D01*
X23192Y744940D01*
X21907Y743656D01*
X201012Y833206D02*
G54D12*
D03*
X302612Y833205D02*
G54D12*
D03*
G54D13*
X130568Y738000D02*
X130568Y781750D01*
X124791Y795465D01*
X130568Y712600D02*
G54D14*
D03*
X130568Y738000D02*
G54D14*
D03*
G54D15*
X531492Y967465D02*
X531492Y953965D01*
G54D15*
X511491Y967465D02*
X511491Y953965D01*
G54D15*
X491491Y967465D02*
X491491Y953965D01*
G54D15*
X471491Y967465D02*
X471491Y953965D01*
G54D15*
X451491Y967465D02*
X451491Y953965D01*
G54D15*
X431491Y967465D02*
X431491Y953965D01*
G54D15*
X411491Y967465D02*
X411491Y953965D01*
G54D15*
X391491Y967465D02*
X391491Y953965D01*
G54D13*
X130568Y738000D02*
X121488Y738000D01*
X86432Y696119D01*
G36*
X398242Y979771D02*
X398242Y952771D01*
X384742Y952771D01*
X384742Y979771D01*
X398242Y979771D01*
G37*
G36*
X418242Y979771D02*
X418242Y952771D01*
X404742Y952771D01*
X404742Y979771D01*
X418242Y979771D01*
G37*
G36*
X438242Y979771D02*
X438242Y952771D01*
X424742Y952771D01*
X424742Y979771D01*
X438242Y979771D01*
G37*
G36*
X458242Y979771D02*
X458242Y952771D01*
X444742Y952771D01*
X444742Y979771D01*
X458242Y979771D01*
G37*
G36*
X478242Y979771D02*
X478242Y952771D01*
X464742Y952771D01*
X464742Y979771D01*
X478242Y979771D01*
G37*
G36*
X498242Y979771D02*
X498242Y952771D01*
X484742Y952771D01*
X484742Y979771D01*
X498242Y979771D01*
G37*
G36*
X518242Y979771D02*
X518242Y952771D01*
X504742Y952771D01*
X504742Y979771D01*
X518242Y979771D01*
G37*
G36*
X538242Y979771D02*
X538242Y952771D01*
X524742Y952771D01*
X524742Y979771D01*
X538242Y979771D01*
G37*
X201012Y833205D02*
G54D16*
D03*
X302612Y833205D02*
G54D16*
D03*
X130568Y738000D02*
G54D17*
D03*
X130568Y712600D02*
G54D17*
D03*
X21432Y696119D02*
G54D18*
D03*
X21432Y741119D02*
G54D18*
D03*
X86432Y696119D02*
G54D18*
D03*
X86432Y741119D02*
G54D18*
D03*
X362744Y721519D02*
G54D19*
D03*
X413544Y721519D02*
G54D19*
D03*
X464344Y721519D02*
G54D19*
D03*
X515144Y721519D02*
G54D19*
D03*
G54D20*
X464344Y721519D02*
X515144Y721519D01*
X224631Y746125D02*
G54D21*
D03*
X250031Y746125D02*
G54D21*
D03*
X275431Y746125D02*
G54D21*
D03*
X72232Y827088D02*
G54D16*
D03*
X173832Y827088D02*
G54D16*
D03*
X173832Y827088D02*
G54D16*
D03*
X72232Y827088D02*
G54D16*
D03*
X73025Y859632D02*
G54D16*
D03*
X174625Y859632D02*
G54D16*
D03*
X174625Y859632D02*
G54D16*
D03*
X73025Y859632D02*
G54D16*
D03*
G54D22*
X174625Y859632D02*
X174625Y827882D01*
X173832Y827088D01*
X391492Y961033D02*
G54D23*
D03*
X391492Y971033D02*
G54D24*
D03*
X531492Y961033D02*
G54D23*
D03*
X511492Y961033D02*
G54D23*
D03*
X491492Y961034D02*
G54D23*
D03*
X471492Y961033D02*
G54D23*
D03*
X451492Y961033D02*
G54D23*
D03*
X431492Y961033D02*
G54D23*
D03*
X411492Y961033D02*
G54D23*
D03*
X531492Y971033D02*
G54D24*
D03*
X511492Y971033D02*
G54D24*
D03*
X491492Y971033D02*
G54D24*
D03*
X471492Y971033D02*
G54D24*
D03*
X451492Y971033D02*
G54D24*
D03*
X431492Y971033D02*
G54D24*
D03*
X411492Y971033D02*
G54D24*
D03*
G54D25*
X511492Y961033D02*
X511492Y971033D01*
G54D25*
X431492Y961033D02*
X431492Y971033D01*
G36*
X538242Y984533D02*
X538242Y957533D01*
X524742Y957533D01*
X524742Y984533D01*
X538242Y984533D01*
G37*
G36*
X518242Y984533D02*
X518242Y957533D01*
X504742Y957533D01*
X504742Y984533D01*
X518242Y984533D01*
G37*
G36*
X498242Y984533D02*
X498242Y957533D01*
X484742Y957533D01*
X484742Y984533D01*
X498242Y984533D01*
G37*
G36*
X478242Y984533D02*
X478242Y957533D01*
X464742Y957533D01*
X464742Y984533D01*
X478242Y984533D01*
G37*
G36*
X458242Y984533D02*
X458242Y957533D01*
X444742Y957533D01*
X444742Y984533D01*
X458242Y984533D01*
G37*
G36*
X438242Y984533D02*
X438242Y957533D01*
X424742Y957533D01*
X424742Y984533D01*
X438242Y984533D01*
G37*
G36*
X418242Y984533D02*
X418242Y957533D01*
X404742Y957533D01*
X404742Y984533D01*
X418242Y984533D01*
G37*
G36*
X398242Y984533D02*
X398242Y957533D01*
X384742Y957533D01*
X384742Y984533D01*
X398242Y984533D01*
G37*
X476492Y781033D02*
G54D26*
D03*
X426492Y781033D02*
G54D26*
D03*
X108815Y656754D02*
G54D27*
D03*
X108815Y631354D02*
G54D27*
D03*
X67725Y655034D02*
G54D27*
D03*
X67725Y629634D02*
G54D27*
D03*
G54D13*
X67725Y629634D02*
X115825Y629634D01*
X117546Y631354D01*
X457523Y631354D01*
X465931Y639762D01*
X465931Y719932D01*
X464344Y721519D01*
X23699Y654587D02*
G54D28*
D03*
X36399Y640587D02*
G54D28*
D03*
X23699Y626587D02*
G54D28*
D03*
G54D13*
X23699Y626587D02*
X64678Y626587D01*
X67725Y629634D01*
G54D13*
X36399Y640587D02*
X53278Y640587D01*
X67725Y655034D01*
G54D13*
X23699Y654587D02*
X23699Y657338D01*
X7144Y673894D01*
X7144Y935831D01*
X15081Y943769D01*
X44496Y943769D01*
X48592Y947865D01*
X217488Y671513D02*
G54D29*
D03*
X268288Y671513D02*
G54D29*
D03*
G54D30*
X250031Y746125D02*
X250031Y769144D01*
X366714Y769144D01*
X414338Y720726D01*
G54D30*
X275431Y746125D02*
X277019Y746125D01*
X300831Y722312D01*
X361951Y722312D01*
X362744Y721519D01*
G54D11*
X217488Y671513D02*
X217488Y650081D01*
X222250Y645319D01*
X431800Y645319D01*
X436562Y650081D01*
X436562Y732631D01*
X374650Y794544D01*
X328912Y794544D01*
X327991Y795465D01*
X166688Y671513D02*
G54D29*
D03*
X217488Y671513D02*
G54D29*
D03*
X166688Y638969D02*
G54D31*
D03*
G54D11*
X166688Y638969D02*
X166688Y671513D01*
G54D13*
X108815Y656754D02*
X108815Y673737D01*
X86432Y696119D01*
G54D13*
X67725Y655034D02*
X107094Y655034D01*
X108815Y656754D01*
X173832Y827088D02*
G54D12*
D03*
X174625Y859632D02*
G54D12*
D03*
X73025Y859632D02*
G54D12*
D03*
X72232Y827088D02*
G54D12*
D03*
M02*
