%FSLAX34Y34*%
%MOMM*%
%LNSOLDERMASK_BOTTOM*%
G71*
G01*
%ADD10C, 2.400*%
%ADD11C, 2.400*%
%ADD12C, 2.000*%
%ADD13C, 1.750*%
%ADD14C, 2.400*%
%ADD15C, 2.000*%
%ADD16C, 2.400*%
%ADD17C, 3.400*%
%ADD18C, 4.400*%
%ADD19C, 2.200*%
%ADD20C, 1.750*%
%ADD21R, 1.750X2.200*%
%ADD22C, 1.750*%
%ADD23C, 2.200*%
%ADD24C, 1.680*%
%ADD25C, 3.400*%
%ADD26C, 0.900*%
%LPD*%
X48591Y795465D02*
G54D10*
D03*
X73992Y795465D02*
G54D10*
D03*
X99392Y795465D02*
G54D10*
D03*
X124791Y795465D02*
G54D10*
D03*
X150192Y795465D02*
G54D10*
D03*
X175592Y795465D02*
G54D10*
D03*
X200992Y795465D02*
G54D10*
D03*
X226392Y795465D02*
G54D10*
D03*
X251791Y795465D02*
G54D10*
D03*
X277191Y795465D02*
G54D10*
D03*
X302591Y795465D02*
G54D10*
D03*
X327991Y795465D02*
G54D10*
D03*
X48592Y947865D02*
G54D10*
D03*
X73992Y947865D02*
G54D10*
D03*
X99392Y947865D02*
G54D10*
D03*
X124792Y947865D02*
G54D10*
D03*
X150191Y947865D02*
G54D10*
D03*
X175592Y947865D02*
G54D10*
D03*
X200992Y947865D02*
G54D10*
D03*
X226392Y947865D02*
G54D10*
D03*
X251791Y947865D02*
G54D10*
D03*
X277191Y947865D02*
G54D10*
D03*
X302591Y947865D02*
G54D10*
D03*
X327991Y947865D02*
G54D10*
D03*
X327991Y947865D02*
G54D10*
D03*
X201012Y833206D02*
G54D11*
D03*
X302612Y833205D02*
G54D11*
D03*
X130568Y712600D02*
G54D12*
D03*
X130568Y738000D02*
G54D12*
D03*
G54D13*
X531492Y967465D02*
X531492Y953965D01*
G54D13*
X511491Y967465D02*
X511491Y953965D01*
G54D13*
X491491Y967465D02*
X491491Y953965D01*
G54D13*
X471491Y967465D02*
X471491Y953965D01*
G54D13*
X451491Y967465D02*
X451491Y953965D01*
G54D13*
X431491Y967465D02*
X431491Y953965D01*
G54D13*
X411491Y967465D02*
X411491Y953965D01*
G54D13*
X391491Y967465D02*
X391491Y953965D01*
G36*
X400242Y981771D02*
X400242Y950771D01*
X382742Y950771D01*
X382742Y981771D01*
X400242Y981771D01*
G37*
G36*
X420242Y981771D02*
X420242Y950771D01*
X402742Y950771D01*
X402742Y981771D01*
X420242Y981771D01*
G37*
G36*
X440242Y981771D02*
X440242Y950771D01*
X422742Y950771D01*
X422742Y981771D01*
X440242Y981771D01*
G37*
G36*
X460242Y981771D02*
X460242Y950771D01*
X442742Y950771D01*
X442742Y981771D01*
X460242Y981771D01*
G37*
G36*
X480242Y981771D02*
X480242Y950771D01*
X462742Y950771D01*
X462742Y981771D01*
X480242Y981771D01*
G37*
G36*
X500242Y981771D02*
X500242Y950771D01*
X482742Y950771D01*
X482742Y981771D01*
X500242Y981771D01*
G37*
G36*
X520242Y981771D02*
X520241Y950771D01*
X502741Y950771D01*
X502742Y981771D01*
X520242Y981771D01*
G37*
G36*
X540242Y981771D02*
X540242Y950771D01*
X522742Y950771D01*
X522742Y981771D01*
X540242Y981771D01*
G37*
X201012Y833205D02*
G54D14*
D03*
X302612Y833205D02*
G54D14*
D03*
X130568Y738000D02*
G54D15*
D03*
X130568Y712600D02*
G54D15*
D03*
X21432Y696119D02*
G54D16*
D03*
X21432Y741119D02*
G54D16*
D03*
X86432Y696119D02*
G54D16*
D03*
X86432Y741119D02*
G54D16*
D03*
X362744Y721519D02*
G54D17*
D03*
X413544Y721519D02*
G54D17*
D03*
X464344Y721519D02*
G54D17*
D03*
X515144Y721519D02*
G54D17*
D03*
G54D18*
X464344Y721519D02*
X515144Y721519D01*
X224631Y746125D02*
G54D19*
D03*
X250031Y746125D02*
G54D19*
D03*
X275431Y746125D02*
G54D19*
D03*
X72232Y827088D02*
G54D14*
D03*
X173832Y827088D02*
G54D14*
D03*
X173832Y827088D02*
G54D14*
D03*
X72232Y827088D02*
G54D14*
D03*
X73025Y859632D02*
G54D14*
D03*
X174625Y859632D02*
G54D14*
D03*
X174625Y859632D02*
G54D14*
D03*
X73025Y859632D02*
G54D14*
D03*
X391492Y961033D02*
G54D20*
D03*
X391492Y971033D02*
G54D21*
D03*
X531492Y961033D02*
G54D20*
D03*
X511492Y961033D02*
G54D20*
D03*
X491492Y961034D02*
G54D20*
D03*
X471492Y961033D02*
G54D20*
D03*
X451492Y961033D02*
G54D20*
D03*
X431492Y961033D02*
G54D20*
D03*
X411492Y961033D02*
G54D20*
D03*
X531492Y971033D02*
G54D21*
D03*
X511492Y971033D02*
G54D21*
D03*
X491492Y971033D02*
G54D21*
D03*
X471492Y971033D02*
G54D21*
D03*
X451492Y971033D02*
G54D21*
D03*
X431492Y971033D02*
G54D21*
D03*
X411492Y971033D02*
G54D21*
D03*
G36*
X540242Y986533D02*
X540242Y955533D01*
X522742Y955533D01*
X522742Y986533D01*
X540242Y986533D01*
G37*
G36*
X520242Y986533D02*
X520242Y955533D01*
X502742Y955533D01*
X502742Y986533D01*
X520242Y986533D01*
G37*
G36*
X500242Y986533D02*
X500242Y955533D01*
X482742Y955533D01*
X482742Y986533D01*
X500242Y986533D01*
G37*
G36*
X480242Y986533D02*
X480242Y955533D01*
X462742Y955533D01*
X462742Y986533D01*
X480242Y986533D01*
G37*
G36*
X460242Y986533D02*
X460242Y955533D01*
X442742Y955533D01*
X442742Y986533D01*
X460242Y986533D01*
G37*
G36*
X440242Y986533D02*
X440242Y955533D01*
X422742Y955533D01*
X422742Y986533D01*
X440242Y986533D01*
G37*
G36*
X420242Y986533D02*
X420242Y955533D01*
X402742Y955533D01*
X402742Y986533D01*
X420242Y986533D01*
G37*
G36*
X400242Y986533D02*
X400242Y955533D01*
X382742Y955533D01*
X382742Y986533D01*
X400242Y986533D01*
G37*
X476492Y781033D02*
G54D22*
D03*
X426492Y781033D02*
G54D22*
D03*
X108815Y656754D02*
G54D23*
D03*
X108815Y631354D02*
G54D23*
D03*
X67725Y655034D02*
G54D23*
D03*
X67725Y629634D02*
G54D23*
D03*
X23699Y654587D02*
G54D24*
D03*
X36399Y640587D02*
G54D24*
D03*
X23699Y626587D02*
G54D24*
D03*
X217488Y671513D02*
G54D25*
D03*
X268288Y671513D02*
G54D25*
D03*
X166688Y671513D02*
G54D25*
D03*
X217488Y671513D02*
G54D25*
D03*
X166688Y638969D02*
G54D26*
D03*
X173832Y827088D02*
G54D11*
D03*
X174625Y859632D02*
G54D11*
D03*
X73025Y859632D02*
G54D11*
D03*
X72232Y827088D02*
G54D11*
D03*
M02*
